<?xml version="1.0" encoding="utf-8"?>
<!-- Generator: Adobe Illustrator 20.1.0, SVG Export Plug-In . SVG Version: 6.00 Build 0)  -->
<svg version="1.1" id="Capa_1" xmlns="http://www.w3.org/2000/svg" xmlns:xlink="http://www.w3.org/1999/xlink" x="0px" y="0px"
	 viewBox="0 0 28.7 40.6" style="enable-background:new 0 0 28.7 40.6;" xml:space="preserve">
<style type="text/css">
	.st0{fill:#171717;}
</style>
<g>
	<path d="M14.2,1.3C7.4,1.3,1.9,6.8,1.9,13.6c0,2.7,1.7,7.2,5.3,13.6c2.5,4.6,5,8.4,5.1,8.5l1.8,2.8l1.8-2.8c0.1-0.2,2.6-4,5.1-8.5
		c3.6-6.4,5.3-10.9,5.3-13.6C26.5,6.8,21,1.3,14.2,1.3L14.2,1.3z M14.2,18.1c-2.6,0-4.6-2.1-4.6-4.6c0-2.6,2.1-4.6,4.6-4.6
		c2.6,0,4.6,2.1,4.6,4.6C18.8,16.1,16.7,18.1,14.2,18.1L14.2,18.1z"/>
</g>
<path class="st0" d="M15.5,1.3c-0.4,0-1.3-0.1-1.3-0.1v7.6c2.6,0,4.6,2.1,4.6,4.6c0,2.6-2.1,4.6-4.6,4.6v20.4l1.8-2.8
	c0.1-0.2,2.6-4,5.1-8.5c3.6-6.4,5.3-10.9,5.3-13.6C26.5,7.2,21.7,2,15.5,1.3z"/>
</svg>
